<?xml version="1.0" encoding="UTF-8"?>
<svg id="Layer_1" data-name="Layer 1" xmlns="http://www.w3.org/2000/svg" viewBox="0 0 392 392">
  <defs>
    <style>
      .cls-1 {
        fill: none;
      }

      .cls-2 {
        fill: #00fdff;
      }
    </style>
  </defs>
  <g id="Layer_2" data-name="Layer 2">
    <g id="Spinner">
      <path class="cls-2" d="M40.21,126.43c3.7-7.31,7.67-14.44,12-21.32l3.36-5.1,3.52-5c1.23-1.63,2.41-3.29,3.65-4.91s2.53-3.21,3.82-4.79c5.21-6.33,10.84-12.3,16.84-17.88,6.02-5.59,12.36-10.82,19-15.66,3.35-2.41,6.74-4.78,10.25-7s7.11-4.28,10.75-6.32c7.29-4,14.73-8,22.53-11.49,3.9-1.72,7.88-3.3,12-4.64,4.08-1.33,8.23-2.41,12.44-3.23,4.2-.9,8.48-1.37,12.78-1.39,4.54.1,8.97,1.39,12.85,3.74,3.04,1.93,3.96,5.95,2.05,9-.43.69-.99,1.29-1.64,1.78l-.41.29c-1.77,1.28-3.72,2.29-5.78,3-1.83.72-3.73,1.26-5.67,1.62-1.88.38-3.78.62-5.69.71-1,0-1.9.18-2.85.26l-2.85.24c-3.81.34-7.64.71-11.48,1.1-3.84.4-7.71.82-11.58,1.4-7.82,1.06-15.51,2.94-22.94,5.61-3.72,1.35-7.34,3-10.94,4.64s-7.14,3.51-10.6,5.51c-13.89,8.1-26.4,18.37-37.06,30.4-1.33,1.48-2.56,3-3.92,4.56s-2.51,3.15-3.75,4.73l-3.54,4.9c-1.13,1.66-2.23,3.35-3.33,5-4.32,6.8-7.98,14-10.93,21.49-.32.83-1.25,1.24-2.08.92s-1.24-1.25-.92-2.07c0,0,.1-.06.12-.1Z"/>
      <rect class="cls-1" width="392" height="392"/>
    </g>
  </g>
</svg>